<svg width="139" height="45" viewBox="0 0 139 45" fill="none" xmlns="http://www.w3.org/2000/svg">
<g clip-path="url(#clip0_108_4)">
<path d="M109.422 0.00817871V6.07532L97.579 25.4271L95.5915 22.1807L81.6269 45L67.8097 22.328L54.1923 44.6684L44.5107 28.8619L62.151 0.0286481H76.0202L81.6703 9.26036L87.2943 0.0286481L109.422 0.00817871Z" fill="white"/>
<path d="M17.5274 0L0 28.6572L9.79002 44.6234L19.9619 28.0308H42.3757L59.5299 0H17.5274ZM37.0554 5.87063L27.0744 22.1602H23.516L33.497 5.87063H37.0554Z" fill="white"/>
<path d="M136.73 0L109.413 44.6397H98.8505L98.8549 27.5437L115.71 0H136.73Z" fill="white"/>
<path d="M139 44.6397H120.635L116.812 38.3883L126.007 23.3719L139 44.6397Z" fill="white"/>
</g>
<defs>
<clipPath id="clip0_108_4">
<rect width="139" height="45" fill="white"/>
</clipPath>
</defs>
</svg>
