<svg width="36" height="35" viewBox="0 0 36 35" fill="none" xmlns="http://www.w3.org/2000/svg">
<path d="M10.3344 14.6962C12.9519 18.4543 21.8325 25.6439 21.8325 25.6439C21.8325 25.6439 24.8584 22.4001 26.6739 22.4001C27.9496 22.4001 35.1461 27.7492 35.1461 29.2932C35.1461 29.9014 30.7083 34.7457 29.2962 34.9698C26.6739 35.3859 19.8256 31.3922 17.9998 29.9013C11.5448 24.6301 9.93103 23.0083 6.90517 19.1564C4.34046 15.8914 0.853545 9.42506 0.853545 7.80307C0.853545 5.36181 5.69485 0.707397 6.90517 0.707397C8.31723 0.707397 12.856 8.41143 13.3602 9.42507C13.8645 10.4387 10.3344 14.6962 10.3344 14.6962Z" fill="white"/>
</svg>
